# xmcd
#
# Track frame offsets:
#        150
#        12748
#        27192
#        41720
#        55862
#        71877
#        84903
#        94514
#        109268
#        122551
#        137076
#        150193
#        164961
#
# Disc length: 2431 seconds
#
# Revision: 0
# Processed by: cddbd v1.5.1PL0 Copyright (c) Steve Scherf et al.
# Submitted via: ExactAudioCopy v0.95a5
#
DISCID=ab097d0d
DTITLE=BARELY LEGAL - One Mans Trash Is Another Mans Treasure
DYEAR=1900
DGENRE=
TTITLE0=Slut Nutz
TTITLE1=Goodbye
TTITLE2=Supermodel
TTITLE3=No Sense
TTITLE4=We Got Caught (mikes Song)
TTITLE5=Problems
TTITLE6=One Day
TTITLE7=Back On The Shelf
TTITLE8=Running Out Again
TTITLE9=Delirium
TTITLE10=Junior College
TTITLE11=Falling Stars
TTITLE12=Storyline
EXTD=
EXTT0=
EXTT1=
EXTT2=
EXTT3=
EXTT4=
EXTT5=
EXTT6=
EXTT7=
EXTT8=
EXTT9=
EXTT10=
EXTT11=
EXTT12=
PLAYORDER=
